<svg t="1685462896916" class="icon" viewBox="0 0 1024 1024" version="1.1" xmlns="http://www.w3.org/2000/svg" p-id="1799" width="200" height="200"><path d="M32 32m240 0l480 0q240 0 240 240l0 480q0 240-240 240l-480 0q-240 0-240-240l0-480q0-240 240-240Z" fill="#000000" fill-opacity="0" p-id="1800"></path><path d="M368 768.8V548.90000001c0-20.22000001 16.08-36.6 35.88-36.6h215.64c19.8 0 36 16.38000001 36 36.6v219.89999999h107.76V403.28L512.06000001 260.89999999l-251.94000001 142.80000002v365.09999999H368zM188.17999999 439.09999999a36.36 36.36 0 0 1-35.03999998-27.41999999 37.2 37.2 0 0 1 17.04-41.52l323.51999998-183.24a35.4 35.4 0 0 1 35.94000001 0l323.4 183.18000001a36.96 36.96 0 0 1 17.70000001 41.63999998 36.12 36.12 0 0 1-35.64000002 27.24v366.36000002c0 20.28-16.08 36.66000001-35.88 36.65999999H224.24a35.64 35.64 0 0 1-25.44-10.74000001 36.96 36.96 0 0 1-10.56-25.92V439.04v0.06000001z m251.58000001 329.70000001h143.76V585.56H439.81999999v183.24z" fill="#000000" fill-opacity=".88" p-id="1801"></path></svg>